<svg width="33" height="20" viewBox="0 0 33 20" fill="none" xmlns="http://www.w3.org/2000/svg">
<path d="M17.518 18.7293L32.4524 3.05525C32.7017 2.79372 32.8408 2.44626 32.8408 2.08493C32.8408 1.72361 32.7017 1.37615 32.4524 1.11462L32.4356 1.09775C32.3147 0.970522 32.1692 0.869219 32.008 0.799992C31.8467 0.730766 31.6731 0.695067 31.4976 0.695067C31.3221 0.695067 31.1485 0.730766 30.9872 0.799992C30.826 0.869219 30.6805 0.970522 30.5596 1.09775L16.4971 15.8577L2.44023 1.09775C2.31937 0.970525 2.17389 0.869222 2.01264 0.799994C1.85139 0.730769 1.67775 0.695069 1.50227 0.695069C1.32678 0.695069 1.15314 0.730769 0.991889 0.799994C0.830638 0.869222 0.685157 0.970525 0.564296 1.09775L0.54742 1.11462C0.298106 1.37615 0.159026 1.72361 0.159026 2.08494C0.159026 2.44626 0.298106 2.79372 0.54742 3.05525L15.4818 18.7293C15.6131 18.8672 15.7711 18.9769 15.9461 19.0519C16.1211 19.1269 16.3095 19.1655 16.4999 19.1655C16.6903 19.1655 16.8787 19.1269 17.0537 19.0519C17.2288 18.9769 17.3867 18.8672 17.518 18.7293Z" fill="#020303"/>
</svg>
