<svg width="36" height="36" viewBox="0 0 36 36" fill="none" xmlns="http://www.w3.org/2000/svg">
<path d="M18 0C27.9411 0 36 8.05887 36 18C36 27.9411 27.9411 36 18 36C8.05887 36 0 27.9411 0 18C0 8.05887 8.05887 0 18 0ZM18 7.5C15.1482 7.5 14.7909 7.51238 13.6709 7.56348C12.5533 7.61459 11.7898 7.79212 11.1221 8.05176C10.4221 8.31496 9.78672 8.7279 9.26172 9.2627C8.72784 9.78706 8.31456 10.4218 8.05078 11.1221C7.79254 11.7898 7.61457 12.5542 7.56348 13.6719C7.51308 14.7912 7.5 15.1475 7.5 18C7.5 20.8525 7.51238 21.2091 7.56348 22.3291C7.61459 23.4467 7.79212 24.2102 8.05176 24.8779C8.31496 25.5779 8.7279 26.2133 9.2627 26.7383C9.78708 27.2721 10.4218 27.6854 11.1221 27.9492C11.7897 28.2081 12.5533 28.3854 13.6709 28.4365C14.7909 28.4876 15.1482 28.5 18 28.5C20.8518 28.5 21.2091 28.4876 22.3291 28.4365C23.4467 28.3854 24.2102 28.2079 24.8779 27.9482C25.5779 27.685 26.2133 27.2721 26.7383 26.7373C27.2722 26.2129 27.6854 25.5782 27.9492 24.8779C28.2081 24.2103 28.3854 23.4467 28.4365 22.3291C28.4876 21.2091 28.5 20.8518 28.5 18C28.5 15.1482 28.4876 14.7909 28.4365 13.6709C28.3854 12.5533 28.2079 11.7898 27.9482 11.1221C27.6846 10.4214 27.2714 9.78624 26.7373 9.26172C26.2129 8.72784 25.5782 8.31456 24.8779 8.05078C24.2102 7.79254 23.4458 7.61457 22.3281 7.56348C21.2088 7.51308 20.8525 7.5 18 7.5ZM18 9.39258C20.8033 9.39258 21.1359 9.40273 22.2432 9.45312C23.2666 9.50002 23.8231 9.66955 24.1934 9.81445C24.6832 10.0041 25.033 10.2329 25.4004 10.5996C25.7678 10.967 25.9959 11.3168 26.1855 11.8066C26.3297 12.1769 26.5 12.7334 26.5469 13.7568C26.5973 14.8641 26.6074 15.1967 26.6074 18C26.6074 20.8033 26.5973 21.1359 26.5469 22.2432C26.5 23.2666 26.3304 23.8231 26.1855 24.1934C26.0175 24.6493 25.7488 25.0617 25.4004 25.4004C25.0617 25.7489 24.6494 26.0176 24.1934 26.1855C23.8231 26.3297 23.2666 26.5 22.2432 26.5469C21.1359 26.5973 20.804 26.6074 18 26.6074C15.196 26.6074 14.8641 26.5973 13.7568 26.5469C12.7334 26.5 12.1769 26.3304 11.8066 26.1855C11.3507 26.0175 10.9383 25.7488 10.5996 25.4004C10.2512 25.0616 9.98255 24.6493 9.81445 24.1934C9.67025 23.8231 9.50002 23.2666 9.45312 22.2432C9.40273 21.1359 9.39258 20.8033 9.39258 18C9.39258 15.1967 9.40273 14.8641 9.45312 13.7568C9.50002 12.7334 9.66955 12.1769 9.81445 11.8066C10.0041 11.3168 10.2329 10.967 10.5996 10.5996C10.9383 10.2511 11.3506 9.98244 11.8066 9.81445C12.1769 9.67025 12.7334 9.50002 13.7568 9.45312C14.8641 9.40273 15.1967 9.39258 18 9.39258ZM17.9883 12.6045C16.5991 12.6045 15.2665 13.1659 14.2842 14.1641C13.3019 15.1622 12.75 16.5162 12.75 17.9277C12.7501 19.3393 13.3019 20.6933 14.2842 21.6914C15.2665 22.6895 16.5991 23.25 17.9883 23.25C19.3774 23.2499 20.7101 22.6895 21.6924 21.6914C22.6746 20.6933 23.2265 19.3392 23.2266 17.9277C23.2266 16.5163 22.6745 15.1622 21.6924 14.1641C20.7101 13.1659 19.3774 12.6045 17.9883 12.6045ZM17.9883 14.4727C18.89 14.4727 19.7549 14.8365 20.3926 15.4844C21.0302 16.1323 21.3887 17.0114 21.3887 17.9277C21.3886 18.8438 21.03 19.7222 20.3926 20.3701C19.7549 21.018 18.89 21.3828 17.9883 21.3828C17.5417 21.3828 17.0991 21.2928 16.6865 21.1191C16.2741 20.9455 15.8996 20.6909 15.584 20.3701C15.2684 20.0494 15.0175 19.669 14.8467 19.25C14.6758 18.8309 14.5879 18.3814 14.5879 17.9277C14.5879 17.4741 14.6759 17.0246 14.8467 16.6055C15.0176 16.1863 15.2682 15.8052 15.584 15.4844C15.8996 15.1636 16.2741 14.909 16.6865 14.7354C17.0991 14.5617 17.5417 14.4727 17.9883 14.4727ZM23.5117 11.25C23.1835 11.25 22.8689 11.3825 22.6367 11.6182C22.4046 11.854 22.2735 12.1743 22.2734 12.5078C22.2734 12.8415 22.4045 13.1615 22.6367 13.3975C22.8689 13.6334 23.1834 13.7666 23.5117 13.7666C23.8401 13.7666 24.1555 13.6334 24.3877 13.3975C24.6197 13.1615 24.75 12.8413 24.75 12.5078C24.7499 12.1743 24.6198 11.854 24.3877 11.6182C24.1555 11.3822 23.8401 11.25 23.5117 11.25Z" fill="#FEFEFE"/>
</svg>
