<svg width="38" height="38" viewBox="0 0 38 38" fill="none" xmlns="http://www.w3.org/2000/svg">
<path d="M19 0C29.4934 0 38 8.50659 38 19C38 29.4934 29.4934 38 19 38C8.50659 38 0 29.4934 0 19C2.57703e-07 8.50659 8.50659 2.5772e-07 19 0ZM19.626 6.9668C13.3988 6.9669 8.33075 12.0346 8.32812 18.2637C8.32728 20.2549 8.84729 22.1987 9.83594 23.9121L8.2334 29.7666L14.2227 28.1953C15.8728 29.0954 17.7312 29.5697 19.6221 29.5703H19.626C25.8551 29.5678 30.9213 24.5003 30.9238 18.2725C30.9249 15.2539 29.7511 12.4156 27.6182 10.2803C25.4851 8.14472 22.6483 6.9681 19.626 6.9668Z" fill="#FEFEFE"/>
<path d="M19.6301 8.875C22.1383 8.87591 24.4959 9.85395 26.2688 11.6289C28.0417 13.4039 29.0178 15.7633 29.0168 18.2725C29.0147 23.4502 24.8019 27.6631 19.6262 27.6631H19.6223C17.9373 27.6624 16.2847 27.2091 14.843 26.3535L14.5002 26.1504L10.9456 27.083L11.8948 23.6172L11.6711 23.2617C10.7313 21.7667 10.2349 20.0389 10.2356 18.2646C10.2377 13.0872 14.4504 8.875 19.6301 8.875ZM15.6262 13.0469C15.4381 13.0469 15.132 13.1169 14.8733 13.3994C14.6145 13.682 13.885 14.3655 13.885 15.7549C13.885 17.1441 14.8968 18.486 15.0383 18.6748C15.1795 18.8633 17.0288 21.7147 19.8606 22.9375C20.5341 23.2284 21.06 23.4021 21.47 23.5322C22.1462 23.7471 22.762 23.7173 23.2483 23.6445C23.7908 23.5634 24.9183 22.9611 25.1536 22.3018C25.3885 21.6425 25.3881 21.0778 25.3176 20.96C25.2471 20.8423 25.0597 20.7711 24.7776 20.6299C24.4953 20.4886 23.1067 19.8052 22.8479 19.7109C22.5894 19.6169 22.4012 19.5703 22.2131 19.8525C22.025 20.1351 21.4833 20.7716 21.3186 20.96C21.1541 21.1479 20.9892 21.1715 20.7073 21.0303C20.4248 20.889 19.5157 20.5904 18.4377 19.6289C17.5986 18.8804 17.0312 17.9566 16.8665 17.6738C16.7019 17.3914 16.8492 17.2384 16.9905 17.0977C17.1175 16.9711 17.2732 16.7673 17.4143 16.6025C17.5553 16.4379 17.6025 16.32 17.6965 16.1318C17.7905 15.9436 17.7436 15.7789 17.6731 15.6377C17.6025 15.4964 17.0372 14.1063 16.802 13.541C16.5729 12.9908 16.3405 13.0653 16.1672 13.0566C16.0028 13.0484 15.8144 13.0469 15.6262 13.0469Z" fill="#FEFEFE"/>
</svg>
