<svg width="37" height="36" viewBox="0 0 37 36" fill="none" xmlns="http://www.w3.org/2000/svg">
<path d="M13.6398 3H19.4807C22.1266 3 24.2236 3 25.8631 3.222C27.5521 3.44999 28.9186 3.92999 29.9955 5.01147C31.074 6.09296 31.5525 7.46544 31.779 9.16042C31.9995 10.8074 31.9995 12.9119 31.9995 15.5683V24.3252C31.9995 26.5872 30.6195 28.5252 28.6591 29.3381C28.7596 27.9732 28.7596 26.0607 28.7596 24.4677V16.9528C28.7596 15.0313 28.7596 13.3739 28.5826 12.0479C28.3921 10.6259 27.9631 9.26391 26.8621 8.15843C25.7611 7.05294 24.4036 6.62245 22.9876 6.43045C21.6677 6.25346 20.0177 6.25346 18.1022 6.25346H13.4973C11.5833 6.25346 9.93631 6.25346 8.61483 6.43045C9.01067 5.41991 9.70182 4.55209 10.5982 3.94016C11.4945 3.32824 12.5545 3.00061 13.6398 3Z" fill="#BA0108"/>
<path d="M17.96 8.9209H13.6396C11.5895 8.9209 10.1021 8.92199 8.9668 9.0752C7.84605 9.22647 7.14287 9.51737 6.61816 10.0439C6.09339 10.5706 5.80384 11.2766 5.65332 12.4023C5.50091 13.5425 5.5 15.037 5.5 17.0957V24.3252C5.5 26.3836 5.50075 27.8774 5.65332 29.0176C5.80401 30.1436 6.09486 30.8492 6.61914 31.376C7.14382 31.9024 7.84619 32.1944 8.9668 32.3457C10.1021 32.4989 11.5895 32.5 13.6396 32.5H17.96C20.0102 32.5 21.4977 32.4989 22.6328 32.3457C23.7534 32.1944 24.4556 31.9024 24.9795 31.376C25.5044 30.8492 25.7945 30.1434 25.9453 29.0176C26.0981 27.8775 26.0996 26.3837 26.0996 24.3252V17.0957C26.0996 15.0371 26.0981 13.5425 25.9453 12.4023C25.7944 11.2767 25.5043 10.5707 24.9795 10.0439C24.4556 9.5176 23.7538 9.22648 22.6338 9.0752C21.4989 8.92196 20.011 8.9209 17.96 8.9209Z" stroke="#BA0108"/>
</svg>
