<svg width="35" height="61" viewBox="0 0 35 61" fill="none" xmlns="http://www.w3.org/2000/svg">
<path d="M33.755 28.5996L4.49675 0.72207C4.00856 0.256685 3.35997 -0.00293105 2.6855 -0.00293108C2.01102 -0.00293111 1.36244 0.256685 0.874252 0.72207L0.842747 0.75357C0.605263 0.979179 0.416161 1.25074 0.286938 1.55174C0.157719 1.85274 0.0910797 2.17688 0.0910797 2.50444C0.0910797 2.83201 0.157719 3.15615 0.286938 3.45715C0.416161 3.75815 0.605263 4.02971 0.842747 4.25532L28.3947 30.5053L0.842747 56.7448C0.605263 56.9704 0.416161 57.242 0.286938 57.543C0.157719 57.844 0.0910797 58.1681 0.0910797 58.4957C0.0910797 58.8233 0.157719 59.1474 0.286938 59.4484C0.416161 59.7494 0.605263 60.021 0.842747 60.2466L0.874252 60.2781C1.36244 60.7435 2.01102 61.0031 2.6855 61.0031C3.35997 61.0031 4.00856 60.7435 4.49675 60.2781L33.755 32.4006C34.0123 32.1554 34.2172 31.8606 34.3571 31.5339C34.4971 31.2072 34.5693 30.8555 34.5693 30.5001C34.5693 30.1447 34.4971 29.793 34.3571 29.4663C34.2172 29.1396 34.0123 28.8447 33.755 28.5996Z" fill="#BA0108"/>
</svg>
