<svg width="19" height="25" viewBox="0 0 19 25" fill="none" xmlns="http://www.w3.org/2000/svg">
<path d="M0.0416011 1.62504L0.0416002 23.375C0.0422906 23.5953 0.103026 23.8111 0.217267 23.9994C0.331506 24.1876 0.494925 24.3412 0.689935 24.4434C0.884946 24.5457 1.10416 24.5929 1.32398 24.5799C1.54381 24.5668 1.75592 24.4941 1.93748 24.3695L17.6458 13.4945C18.2971 13.0438 18.2971 11.9587 17.6458 11.5068L1.93748 0.631791C1.7563 0.505913 1.54408 0.432095 1.32389 0.418358C1.1037 0.40462 0.883959 0.451489 0.688536 0.553871C0.493113 0.656253 0.329483 0.810233 0.215427 0.999081C0.101374 1.18793 0.041254 1.40442 0.0416011 1.62504ZM14.8352 12.5L2.45827 21.0695L2.45827 3.93054L14.8352 12.5Z" fill="#BA0108"/>
</svg>
