<svg width="48" height="49" viewBox="0 0 48 49" fill="none" xmlns="http://www.w3.org/2000/svg">
<path d="M33.6667 39L23.1667 28.5C22.3333 29.1667 21.375 29.6944 20.2917 30.0833C19.2083 30.4722 18.0556 30.6667 16.8333 30.6667C13.8056 30.6667 11.2433 29.6178 9.14667 27.52C7.05 25.4222 6.00111 22.86 6 19.8333C5.99889 16.8067 7.04778 14.2444 9.14667 12.1467C11.2456 10.0489 13.8078 9 16.8333 9C19.8589 9 22.4217 10.0489 24.5217 12.1467C26.6217 14.2444 27.67 16.8067 27.6667 19.8333C27.6667 21.0556 27.4722 22.2083 27.0833 23.2917C26.6944 24.375 26.1667 25.3333 25.5 26.1667L36 36.6667L33.6667 39ZM16.8333 27.3333C18.9167 27.3333 20.6878 26.6044 22.1467 25.1467C23.6056 23.6889 24.3344 21.9178 24.3333 19.8333C24.3322 17.7489 23.6033 15.9783 22.1467 14.5217C20.69 13.065 18.9189 12.3356 16.8333 12.3333C14.7478 12.3311 12.9772 13.0606 11.5217 14.5217C10.0661 15.9828 9.33667 17.7533 9.33333 19.8333C9.33 21.9133 10.0594 23.6844 11.5217 25.1467C12.9839 26.6089 14.7544 27.3378 16.8333 27.3333Z" fill="#FEFEFE"/>
</svg>
